<?xml version="1.0" encoding="utf-8"?>
<!-- Generator: Adobe Illustrator 23.0.4, SVG Export Plug-In . SVG Version: 6.00 Build 0)  -->
<svg version="1.1" id="Layer_1" xmlns:sketch="http://www.bohemiancoding.com/sketch/ns"
	 xmlns="http://www.w3.org/2000/svg" xmlns:xlink="http://www.w3.org/1999/xlink" x="0px" y="0px" viewBox="0 0 46 46"
	 style="enable-background:new 0 0 46 46;" xml:space="preserve">
<style type="text/css">
	.st0{fill-rule:evenodd;clip-rule:evenodd;fill:#4285F4;}
	.st1{fill-rule:evenodd;clip-rule:evenodd;fill:#34A853;}
	.st2{fill-rule:evenodd;clip-rule:evenodd;fill:#FBBC05;}
	.st3{fill-rule:evenodd;clip-rule:evenodd;fill:#EA4335;}
	.st4{fill:none;}
</style>
<title>btn_google_light_normal_ios</title>
<desc>Created with Sketch.</desc>
<g id="Google-Button" sketch:type="MSPage">
	<g transform="translate(-608.000000, -160.000000)" sketch:type="MSArtboardGroup">
	</g>
	<g id="btn_google_light_normal" transform="translate(-1.000000, -1.000000)" sketch:type="MSArtboardGroup">
		<g id="logo_googleg_48dp" transform="translate(15.000000, 15.000000)" sketch:type="MSLayerGroup">
			<path id="Shape" sketch:type="MSShapeGroup" class="st0" d="M21.7,9.3c0-0.9-0.1-1.8-0.2-2.7H9v5.1h7.1c-0.3,1.7-1.2,3.1-2.6,4
				V19h4.3C20.3,16.7,21.7,13.3,21.7,9.3L21.7,9.3z"/>
			<path sketch:type="MSShapeGroup" class="st1" d="M9,22.2c3.6,0,6.6-1.2,8.8-3.2l-4.3-3.3C12.3,16.5,10.8,17,9,17
				c-3.4,0-6.4-2.3-7.4-5.5h-4.4v3.4C-0.6,19.3,3.8,22.2,9,22.2L9,22.2z"/>
			<path sketch:type="MSShapeGroup" class="st2" d="M1.6,11.5C1.3,10.7,1.2,9.9,1.2,9s0.2-1.7,0.4-2.5V3.1h-4.4
				C-3.7,4.8-4.2,6.9-4.2,9s0.5,4.2,1.4,5.9L1.6,11.5L1.6,11.5z"/>
			<path sketch:type="MSShapeGroup" class="st3" d="M9,1c1.9,0,3.7,0.7,5.1,2l3.8-3.8C15.6-2.9,12.6-4.2,9-4.2
				c-5.2,0-9.6,3-11.8,7.3l4.4,3.4C2.6,3.4,5.6,1,9,1L9,1z"/>
			<path sketch:type="MSShapeGroup" class="st4" d="M-4.2-4.2h26.5v26.5H-4.2V-4.2z"/>
		</g>
		<g id="handles_square" sketch:type="MSLayerGroup">
		</g>
	</g>
</g>
</svg>
